<svg width="154" height="154" viewBox="0 0 154 154" fill="none" xmlns="http://www.w3.org/2000/svg">
<path d="M99.7609 136.7L77.5609 136.6C44.0609 136.6 16.8609 109.7 16.7609 76.6C16.7609 60.5 22.9609 45.4 34.3609 34C45.7609 22.6 60.8609 16.4 76.8609 16.4H76.9609C110.061 16.5 136.961 43.7 136.961 77.2L137.061 99.4C137.061 103.9 140.761 107.6 145.261 107.6C149.761 107.6 153.461 103.9 153.461 99.4L153.361 77.3C153.361 56.6 145.161 37.1 130.361 22.4C116.061 7.9 96.9609 0 76.8609 0C76.7609 0 76.5609 0 76.3609 0C56.1609 0.1 37.0609 8.1 22.7609 22.4C8.36087 36.8 0.460862 55.8 0.360862 76C0.260862 96.3 8.16087 115.5 22.6609 130C37.3609 144.8 56.8609 153 77.5609 153L99.6609 153.1C104.161 153.1 107.861 149.4 107.861 144.9C107.961 140.4 104.261 136.7 99.7609 136.7Z" fill="#64C3D4"/>
<path d="M145.361 114C137.261 114 130.761 107.4 130.661 99.3C130.661 94.8 126.961 91.2 122.561 91.2C118.061 91.2 114.461 94.8 114.461 99.3C114.461 107.4 107.861 113.9 99.7609 113.9C95.2609 113.9 91.6609 117.6 91.6609 122C91.6609 126.5 95.3609 130.1 99.7609 130.1C107.861 130.1 114.461 136.7 114.461 144.8C114.461 149.3 118.161 152.9 122.561 152.9C127.061 152.9 130.661 149.3 130.661 144.8C130.661 136.7 137.261 130.1 145.361 130.1C149.861 130.1 153.461 126.5 153.461 122C153.461 117.7 149.761 114 145.361 114Z" fill="white"/>
</svg>
